<?xml version="1.0" encoding="utf-8"?>
<!-- Generator: Adobe Illustrator 21.0.0, SVG Export Plug-In . SVG Version: 6.00 Build 0)  -->
<svg version="1.1" id="Layer_1" xmlns="http://www.w3.org/2000/svg" xmlns:xlink="http://www.w3.org/1999/xlink" x="0px" y="0px"
	 viewBox="0 0 118 46" style="enable-background:new 0 0 118 46;" xml:space="preserve">
<style type="text/css">
	.st0{fill:#321FDB;}
</style>
<g>
	<path class="st0" d="M20.8,26l2.7,7.7h-6.1l-2.3-7h-1.7l-1.4,7H6.4l4-20.5h7c3.6,0,8.4,0.8,8.4,5.4C25.7,22.4,24.1,24.9,20.8,26z
		 M14.2,22.6h1.6c2.4,0,4-0.8,4-3.1c0-1.5-1.3-1.7-3.2-1.7h-1.4L14.2,22.6z"/>
	<path class="st0" d="M42.4,26.1l-0.3,1.4H31.4c0.3,1.7,1.8,2.2,3.7,2.2c2.1,0,4.3-0.6,5.3-1.3l-0.8,4.1c-1.1,0.8-3.2,1.4-6,1.4
		c-4.8,0-7.8-2.6-7.8-6.5c0-5.6,4.1-9.2,9.8-9.2c3.8,0,7,1.9,7,6C42.6,24.8,42.5,25.4,42.4,26.1z M31.8,24.5h5.5
		c-0.1-1.6-1-2.2-2.3-2.2C33.6,22.3,32.5,23.2,31.8,24.5z"/>
	<path class="st0" d="M55.7,33c-1.5,0.6-3.1,1-4.9,1c-4.5,0-7-2.8-7-6.3c0-5.7,4.2-9.4,10.1-9.4c1.5,0,3.1,0.3,4.4,1l-0.9,4.5
		c-1.1-0.6-2.1-1-3.4-1c-2.7,0-4.5,1.7-4.5,4.2c0,1.9,1.6,2.6,3.1,2.6c1.3,0,2.7-0.5,3.8-1.1L55.7,33z"/>
	<path class="st0" d="M58.8,27.5c0-5.5,4.6-9.3,10.3-9.3c4.8,0,7.7,2.7,7.7,6.6c0,5.3-4.5,9.2-10.3,9.2C61.7,34,58.8,31.3,58.8,27.5
		z M68.5,22.7c-2.2,0-3.9,1.9-3.9,4.2c0,1.6,1,2.6,2.6,2.6c2.2,0,4-1.9,4-4.2C71.1,23.6,70,22.7,68.5,22.7z"/>
	<path class="st0" d="M80.2,18.4h5.2L85,20.9c1.2-2.3,2.9-2.7,4.1-2.7c1.1,0,2,0.4,2.2,0.8l-1,4.8c-0.6-0.5-1.5-0.8-2.5-0.8
		c-2,0-3.3,1.1-3.7,3.2l-1.5,7.5h-5.5L80.2,18.4z"/>
	<path class="st0" d="M99.8,18.2c2.4,0,4.3,0.9,4.8,1.9l1.6-8.1h5.5l-4.2,21.7h-5.2l0.2-1.8c-0.9,1.2-3,2-5.3,2
		c-3.9,0-6.4-2.6-6.4-6.2C90.8,22.4,94.7,18.2,99.8,18.2z M99.4,29.5c2.3,0,4.2-1.8,4.2-4.2c0-1.6-1.1-2.6-2.9-2.6
		c-2.3,0-4.2,1.9-4.2,4.2C96.5,28.5,97.7,29.5,99.4,29.5z"/>
</g>
</svg>
